<?xml version="1.0" encoding="UTF-8" standalone="no"?>
<!-- Created with Inkscape (http://www.inkscape.org/) -->

<svg
   width="112.73102mm"
   height="112.73103mm"
   viewBox="0 0 112.73102 112.73103"
   version="1.1"
   id="svg1"
   xml:space="preserve"
   xmlns:xlink="http://www.w3.org/1999/xlink"
   xmlns="http://www.w3.org/2000/svg"
   xmlns:svg="http://www.w3.org/2000/svg"><defs
     id="defs1"><linearGradient
       id="linearGradient22"><stop
         style="stop-color:#2c3e50;stop-opacity:1;"
         offset="0"
         id="stop21" /><stop
         style="stop-color:#4782af;stop-opacity:1;"
         offset="1"
         id="stop22" /></linearGradient><linearGradient
       xlink:href="#linearGradient22"
       id="linearGradient21"
       gradientUnits="userSpaceOnUse"
       x1="273.70285"
       y1="128.98055"
       x2="325.49817"
       y2="78.200798"
       gradientTransform="translate(2.8686403,129.08881)" /></defs><g
     id="layer1"
     transform="translate(-234.93207,-189.51673)"><circle
       style="fill:url(#linearGradient21);fill-opacity:1;stroke-width:0.4625"
       id="circle20"
       r="56.365513"
       cy="245.88222"
       cx="291.29761" /><path
       d="m 279.94803,204.55148 c -1.20748,1.73111 4.47336,4.73464 6.55435,6.30865 l 0.53682,0.2679 c -1.4452,-1.78119 -4.5314,-4.90058 -7.09117,-6.57655 z m -9.57598,1.10846 c -0.67564,-0.004 -1.15992,0.38513 -1.29009,1.45178 3.88418,1.79515 7.96928,3.08979 11.98461,4.5496 0.47459,0.15518 0.94591,0.32089 1.42505,0.46189 0.1144,-0.70136 -4.2154,-2.59859 -5.9083,-3.48529 -1.50852,-0.39135 -4.48465,-2.96782 -6.21127,-2.97798 z m 0.52521,7.07956 c -1.08665,-0.0607 -2.58735,0.40191 -3.5413,1.33372 -3.64481,2.77632 -3.60489,7.85956 -4.56171,11.94778 -1.406,5.47143 4.33037,7.24443 7.33764,10.23389 1.37651,3.03162 -0.44541,6.40844 -0.57416,9.57346 -1.53027,8.75785 -2.81071,17.5732 -4.45348,26.30116 -0.69616,3.30723 0.88599,7.69272 4.7446,7.84974 2.53294,0.0471 5.11709,0.32003 7.62547,-0.13244 5.04556,-1.28552 3.83332,-7.75777 4.66135,-11.70132 1.18391,-4.07873 -0.45189,-9.71573 3.47268,-12.49192 3.80515,-1.04539 7.8935,-0.54789 11.82013,-0.70457 3.66368,-0.34498 7.67574,0.64295 11.01743,-1.25275 2.20445,-2.22996 4.55867,-7.09773 1.93033,-9.7619 -5.23539,-0.20552 -10.4757,-0.16037 -15.71384,-0.19753 -4.34398,1.02419 -3.18782,-5.55074 -0.82567,-7.18804 -5.50238,-3.81618 -12.75067,7.16533 -3.10084,9.00864 -0.23812,0.40832 -4.58611,1.08274 -6.14114,-0.0398 -1.10296,-3.08805 -0.26931,-8.38581 2.68688,-10.608 7.51337,-0.92538 15.0929,-1.09979 22.6196,-1.88367 5.5526,0.0903 9.84839,-4.33228 12.08753,-9.022 1.75739,-2.81562 4.00792,-8.77768 -0.78934,-9.7783 -14.71737,-0.64341 -29.46631,-0.85698 -44.17313,-1.41773 -5.22207,0.25965 -5.21126,6.65607 -6.03494,10.49952 -1.21706,3.30702 -1.13577,7.83032 2.45505,9.6282 -1.64055,0.15103 -4.7436,-1.90115 -4.64092,-4.20551 -0.2507,-4.42412 1.07515,-8.8737 2.1889,-13.0479 2.01284,-1.92173 1.3,-2.86464 -0.0971,-2.94268 z m 8.70844,5.5796 c 8.17305,0.29916 16.3393,0.752 24.50856,1.1357 5.58965,0.38988 11.23067,0.22138 16.78396,0.95734 0.14716,2.74261 -3.28693,7.87727 -6.9552,8.86686 -8.93158,0.40003 -17.90482,0.0462 -26.84984,0.006 -3.5661,-0.5297 -7.67261,0.9639 -10.81536,-1.08927 -1.24585,-3.0241 -0.67253,-9.10452 3.32788,-9.87668 z m 15.21209,2.01585 c -2.3792,-0.10923 -2.23654,3.11019 -2.87632,5.28218 -1.18597,4.27561 5.40856,1.84616 7.85579,2.54106 3.15648,0.0335 6.31273,0.10864 9.46952,0.10898 4.71003,1.0879 8.3978,-2.59769 9.7508,-6.77584 -7.6685,-0.38284 -15.34289,-0.6296 -23.01616,-0.89301 -0.45246,-0.16423 -0.84374,-0.24777 -1.18363,-0.26337 z m -11.5492,1.13872 c -1.73868,0.004 -3.90082,1.51805 -2.3559,3.77313 1.19722,0.386 2.93532,0.58708 3.70073,-0.68364 1.10368,-2.18358 0.007,-3.09299 -1.34483,-3.08949 z m 8.77958,37.91418 c -0.25654,0.0116 -0.55658,0.0699 -0.90714,0.18315 v 9.23492 5.72188 c -0.0496,1.80193 -0.47963,4.41886 2.32487,3.51304 v -14.9568 c 0.0435,-1.57669 0.37809,-3.7775 -1.41773,-3.69619 z m 18.95546,0.0166 c -0.17545,-0.007 -0.38004,0.0168 -0.6178,0.0759 v 9.28033 4.98627 c 0.27332,1.49026 -0.9878,4.85165 1.54991,4.2938 v -14.31301 c -0.24686,-1.33824 0.76385,-4.25695 -0.93211,-4.32332 z m -7.51321,0.0103 c -0.50161,-0.0146 -1.05878,0.0464 -1.62888,0.15615 v 9.23492 6.69814 c -0.70497,2.55592 1.29989,2.90824 3.48706,2.53678 2e-5,-5.24511 2.4e-4,-10.49018 2.5e-4,-15.73529 0.65062,-2.12297 -0.35362,-2.84678 -1.85843,-2.8907 z m -8.42944,0.0961 c -0.13023,0.006 -0.27403,0.0252 -0.43264,0.06 v 9.23492 4.94111 c 0.27333,1.49027 -0.98779,4.85165 1.54992,4.29381 v -14.17604 c -0.25625,-1.39712 0.83617,-4.43873 -1.11728,-4.35384 z m 3.05467,0.06 v 9.23492 c 5e-5,0.73825 2.5e-4,1.4766 2.6e-4,2.21488 0.6678,2.08342 -1.54297,6.99504 1.48533,7.02004 l 0.0166,-10.71168 c -0.74378,-2.27466 1.67794,-7.59685 -1.50224,-7.75816 z m 9.61913,0.006 c -0.10073,0.002 -0.20725,0.0115 -0.31962,0.0265 v 9.26721 5.26705 c 0.15216,1.55732 -0.83631,4.67766 1.87281,3.90329 -0.0116,-3.54196 -0.0232,-7.08395 -0.0348,-10.62591 -0.73531,-2.22197 1.60413,-7.92093 -1.51838,-7.83812 z m -19.46629,0.005 c -0.31958,0.002 -0.74971,0.28459 -1.3254,0.97981 -0.99727,5.68138 -1.4316,11.43904 -2.13063,17.16007 v 0.12386 0.19526 h 4.26227 v -14.11474 c 0.10145,-1.36636 0.23771,-4.35133 -0.80624,-4.34426 z"
       id="path20"
       style="fill:#ffffff;fill-opacity:1;stroke-width:0.488163" /></g></svg>
